# xmcd
#
# Track frame offsets:
#	150
#	21022
#	41520
#	59340
#	74107
#	97817
#	116135
#	137000
#	152507
#	172865
#
# Disc length: 2587 seconds
#
# Revision: 3
# Processed by: cddbd v1.5.2PL0 Copyright (c) Steve Scherf et al.
# Submitted via: EZCDAudioConverter 8.0.2.1
#
DISCID=7f0a190a
DTITLE=Nguyễn Hưng - Ngựa Hoang
DYEAR=1995
DGENRE=
TTITLE0=Vết thù trên lưng ngựa hoang
TTITLE1=Đừng hỏi vì sao tôi buồn
TTITLE2=Tình chết theo mùa đông
TTITLE3=Người xa người
TTITLE4=Hương xưa
TTITLE5=Xin làm người tình
TTITLE6=Nhớ phút ấy
TTITLE7=Bốn màu áo
TTITLE8=Ân tình mong manh
TTITLE9=Yêu thầm
EXTD=
EXTT0=
EXTT1=
EXTT2=
EXTT3=
EXTT4=
EXTT5=
EXTT6=
EXTT7=
EXTT8=
EXTT9=
PLAYORDER=
